<?xml version="1.0" encoding="UTF-8" standalone="no"?>
<!DOCTYPE svg PUBLIC "-//W3C//DTD SVG 1.1//EN"
 "http://www.w3.org/Graphics/SVG/1.1/DTD/svg11.dtd">
<!-- Generated by graphviz version 14.1.5 (20260411.2331)
 -->
<!-- Title: G Pages: 1 -->
<svg width="328pt" height="220pt"
 viewBox="0.00 0.00 328.00 220.00" xmlns="http://www.w3.org/2000/svg" xmlns:xlink="http://www.w3.org/1999/xlink">
<g id="graph0" class="graph" transform="scale(1 1) rotate(0) translate(4 216)">
<title>G</title>
<polygon fill="white" stroke="none" points="-4,4 -4,-216 324,-216 324,4 -4,4"/>
<g id="clust1" class="cluster">
<title>cluster_G</title>
<path fill="#808080" fill-opacity="0.094118" stroke="black" d="M20,-8C20,-8 300,-8 300,-8 306,-8 312,-14 312,-20 312,-20 312,-192 312,-192 312,-198 306,-204 300,-204 300,-204 20,-204 20,-204 14,-204 8,-198 8,-192 8,-192 8,-20 8,-20 8,-14 14,-8 20,-8"/>
</g>
<!-- chat_client -->
<g id="node1" class="node">
<title>chat_client</title>
<g id="a_node1"><a xlink:title="chat_client&#10;C:UsersyzxDesktop人工智能提示1practice02chat_client.py">
<ellipse fill="#ffffff" fill-opacity="0.698039" stroke="black" cx="144" cy="-178" rx="51.35" ry="18"/>
<text xml:space="preserve" text-anchor="middle" x="144" y="-172.95" font-family="Times New Roman,serif" font-size="14.00" fill="#000000">chat_client</text>
</a>
</g>
</g>
<!-- chat_client__load_env -->
<g id="node2" class="node">
<title>chat_client__load_env</title>
<g id="a_node2"><a xlink:title="chat_client.load_env&#10;C:UsersyzxDesktop人工智能提示1practice02chat_client.py:9&#10;function in chat_client">
<ellipse fill="#ffffff" fill-opacity="0.698039" stroke="black" cx="61" cy="-34" rx="44.7" ry="18"/>
<text xml:space="preserve" text-anchor="middle" x="61" y="-28.95" font-family="Times New Roman,serif" font-size="14.00" fill="#000000">load_env</text>
</a>
</g>
</g>
<!-- chat_client&#45;&gt;chat_client__load_env -->
<g id="edge1" class="edge">
<title>chat_client&#45;&gt;chat_client__load_env</title>
<path fill="none" stroke="#838b8b" stroke-dasharray="5,2" d="M130.57,-160.34C122.66,-150.16 112.72,-136.69 105,-124 92.9,-104.13 81.33,-80.47 73.09,-62.54"/>
<polygon fill="#838b8b" stroke="#838b8b" points="76.35,-61.25 69.04,-53.58 69.97,-64.13 76.35,-61.25"/>
</g>
<!-- chat_client__main -->
<g id="node3" class="node">
<title>chat_client__main</title>
<g id="a_node3"><a xlink:title="chat_client.main&#10;C:UsersyzxDesktop人工智能提示1practice02chat_client.py:172&#10;function in chat_client">
<ellipse fill="#ffffff" fill-opacity="0.698039" stroke="black" cx="144" cy="-106" rx="29.86" ry="18"/>
<text xml:space="preserve" text-anchor="middle" x="144" y="-100.95" font-family="Times New Roman,serif" font-size="14.00" fill="#000000">main</text>
</a>
</g>
</g>
<!-- chat_client&#45;&gt;chat_client__main -->
<g id="edge2" class="edge">
<title>chat_client&#45;&gt;chat_client__main</title>
<path fill="none" stroke="#838b8b" stroke-dasharray="5,2" d="M138.08,-159.7C137.33,-152.41 137.09,-143.73 137.35,-135.54"/>
<polygon fill="#838b8b" stroke="#838b8b" points="140.84,-135.82 138.01,-125.61 133.86,-135.36 140.84,-135.82"/>
</g>
<!-- chat_client&#45;&gt;chat_client__main -->
<g id="edge3" class="edge">
<title>chat_client&#45;&gt;chat_client__main</title>
<path fill="none" stroke="#000000" d="M149.92,-159.7C150.67,-152.41 150.91,-143.73 150.65,-135.54"/>
<polygon fill="#000000" stroke="#000000" points="154.14,-135.36 149.99,-125.61 147.16,-135.82 154.14,-135.36"/>
</g>
<!-- chat_client__stream_llm_response -->
<g id="node4" class="node">
<title>chat_client__stream_llm_response</title>
<g id="a_node4"><a xlink:title="chat_client.stream_llm_response&#10;C:UsersyzxDesktop人工智能提示1practice02chat_client.py:32&#10;function in chat_client">
<ellipse fill="#ffffff" fill-opacity="0.698039" stroke="black" cx="214" cy="-34" rx="90.25" ry="18"/>
<text xml:space="preserve" text-anchor="middle" x="214" y="-28.95" font-family="Times New Roman,serif" font-size="14.00" fill="#000000">stream_llm_response</text>
</a>
</g>
</g>
<!-- chat_client&#45;&gt;chat_client__stream_llm_response -->
<g id="edge4" class="edge">
<title>chat_client&#45;&gt;chat_client__stream_llm_response</title>
<path fill="none" stroke="#838b8b" stroke-dasharray="5,2" d="M158.01,-160.67C166.13,-150.6 176.08,-137.14 183,-124 193.2,-104.64 201.2,-81.23 206.52,-63.27"/>
<polygon fill="#838b8b" stroke="#838b8b" points="209.84,-64.39 209.21,-53.82 203.1,-62.48 209.84,-64.39"/>
</g>
<!-- chat_client__main&#45;&gt;chat_client__load_env -->
<g id="edge5" class="edge">
<title>chat_client__main&#45;&gt;chat_client__load_env</title>
<path fill="none" stroke="#000000" d="M127.2,-90.83C115.97,-81.36 100.93,-68.67 88.02,-57.79"/>
<polygon fill="#000000" stroke="#000000" points="90.56,-55.35 80.66,-51.58 86.05,-60.7 90.56,-55.35"/>
</g>
<!-- chat_client__main&#45;&gt;chat_client__stream_llm_response -->
<g id="edge6" class="edge">
<title>chat_client__main&#45;&gt;chat_client__stream_llm_response</title>
<path fill="none" stroke="#000000" d="M158.85,-90.15C167.56,-81.44 178.81,-70.19 188.87,-60.13"/>
<polygon fill="#000000" stroke="#000000" points="191.29,-62.66 195.89,-53.11 186.34,-57.71 191.29,-62.66"/>
</g>
</g>
</svg>
